<svg font-family="-apple-system-body, ui-sans-serif, -apple-system, system-ui, &quot;Segoe UI&quot;, Helvetica, &quot;Apple Color Emoji&quot;, Arial, sans-serif, &quot;Segoe UI Emoji&quot;, &quot;Segoe UI Symbol&quot;" font-weight="400" data-d-component="svg" fill="currentColor" height="180" style="color:rgb(255, 255, 255)" viewBox="0 0 640 180" width="100%" xmlns="http://www.w3.org/2000/svg"><rect x="40" y="55" width="90" height="70" rx="10" fill="none" stroke="currentColor"/><rect x="275" y="45" width="90" height="90" rx="10" fill="none" stroke="currentColor"/><rect x="510" y="55" width="90" height="70" rx="10" fill="none" stroke="currentColor"/><text x="85" y="95" text-anchor="middle" font-size="15">Tx</text><text x="320" y="95" text-anchor="middle" font-size="15">Channel</text><text x="555" y="95" text-anchor="middle" font-size="15">Rx</text><path d="M130 72 L275 72" stroke="currentColor" stroke-width="2"/><polygon points="275,72 259,64 259,80" fill="currentColor"/><path d="M365 72 L510 72" stroke="currentColor" stroke-width="2"/><polygon points="510,72 494,64 494,80" fill="currentColor"/><path d="M130 108 C200 145,230 145,275 108" stroke="currentColor" stroke-width="2" fill="none"/><polygon points="275,108 259,100 259,116" fill="currentColor"/><path d="M365 108 C430 145,460 145,510 108" stroke="currentColor" stroke-width="2" fill="none"/><polygon points="510,108 494,100 494,116" fill="currentColor"/><text x="200" y="62" text-anchor="middle" font-size="13">0 with 1−p</text><text x="200" y="155" text-anchor="middle" font-size="13">1 with p</text><text x="440" y="62" text-anchor="middle" font-size="13">0 with 1−p</text><text x="440" y="155" text-anchor="middle" font-size="13">1 with p</text></svg>